<?xml version="1.0" encoding="iso-8859-1"?>
<!-- Generator: Adobe Illustrator 16.0.0, SVG Export Plug-In . SVG Version: 6.00 Build 0)  -->
<!DOCTYPE svg PUBLIC "-//W3C//DTD SVG 1.1//EN" "http://www.w3.org/Graphics/SVG/1.1/DTD/svg11.dtd">
<svg version="1.1" id="Capa_1" xmlns="http://www.w3.org/2000/svg" xmlns:xlink="http://www.w3.org/1999/xlink" x="0px" y="0px"
	 width="404.763px" height="404.763px" viewBox="0 0 404.763 404.763" style="enable-background:new 0 0 404.763 404.763;"
	 xml:space="preserve">
<g>
	<g>
		<path d="M197.77,219.758c8.338-14.839,14.363-30.963,18.334-47.542l14.567,11.948l0.48-0.709l-9.229-38.616
			c-0.966-13.124-1.924-26.25-2.89-39.387c-4.641,12.321-9.27,24.644-13.9,36.96l-19.774,34.426l0.391,0.839l15.22-6.494
			c-5.043,14.118-10.846,27.888-17.058,41.553c-8.486,18.967-19.492,36.896-32.038,53.711
			c-12.519,16.88-26.793,32.473-41.936,47.248c-15.22,14.663-31.512,28.473-49.167,40.271l0.785,1.362
			c18.763-10.423,36.255-22.942,52.914-36.567c16.631-13.653,31.958-28.97,45.994-45.469
			C174.461,256.763,186.984,238.85,197.77,219.758z"/>
		<path d="M119.094,340.65c-9.97,3.005-20.075,5.718-30.286,7.674l0.21,1.547c10.479-1.162,20.794-3.126,31.08-5.39L119.094,340.65z
			"/>
		<path d="M150.691,336.435c9.979-3.03,20.121-6.48,29.912-10.38l-3.362-7.83c-9.47,4.332-18.863,8.411-28.669,12.23
			L150.691,336.435z"/>
		<path d="M204.889,304.183l4.829,9.112c9.352-4.516,18.945-9.605,28.05-14.896l-6.367-10.287
			C222.712,293.831,214.096,299.069,204.889,304.183z"/>
		<path d="M279.734,249.926c-3.787,3.45-7.674,6.784-11.529,10.167c-3.795,3.302-7.75,6.616-11.874,9.935l8.492,11.284
			c4.288-2.929,8.64-6.011,13.012-9.244c4.276-3.215,8.403-6.608,12.527-10.02L279.734,249.926z"/>
		<path d="M355.362,171.469c-9.81,8.77-19.624,17.544-29.438,26.322l-33.462,21.362l-0.04,0.913l17.272,1.354
			c-2.469,2.517-4.957,5.037-7.594,7.59l11.221,10.52c2.829-3.258,5.714-6.668,8.579-10.166l7.338,17.243l0.766-0.4l9.689-38.491
			C344.915,195.633,350.145,183.551,355.362,171.469z"/>
		<path d="M61.626,371.122c-0.241-2.144-2.234-3.746-4.354-3.434l-21.911,2.584c-2.881-9.75-4.005-18.638-0.839-22.361
			c1.404-1.65,1.2-4.119-0.455-5.53c-1.641-1.41-4.122-1.202-5.528,0.461c-5.394,6.348-4.254,17.581-1.208,28.365l-14.75,1.751
			c-2.154,0.244-3.699,2.191-3.438,4.352c0.227,1.996,1.921,3.467,3.883,3.467c0.15,0,0.314-0.008,0.463-0.032l16.276-1.915
			c3.193,8.86,6.999,16.45,8.476,19.279c0.701,1.335,2.065,2.1,3.472,2.1c0.609,0,1.238-0.144,1.822-0.448
			c1.915-1.006,2.659-3.383,1.655-5.306c-2.553-4.861-5.118-10.696-7.301-16.583l20.285-2.4
			C60.35,375.226,61.886,373.278,61.626,371.122z"/>
		<path d="M378.477,140.309c-2.89-9.748-4.008-18.626-0.842-22.347c1.402-1.649,1.202-4.13-0.452-5.537
			c-1.64-1.395-4.124-1.184-5.526,0.457c-5.398,6.352-4.256,17.583-1.215,28.377l-14.739,1.737
			c-2.155,0.249-3.694,2.204-3.435,4.358c0.221,1.994,1.916,3.461,3.88,3.461c0.16,0,0.312-0.006,0.473-0.022l16.278-1.917
			c3.182,8.856,6.988,16.449,8.476,19.274c0.701,1.334,2.063,2.106,3.467,2.106c0.621,0,1.242-0.15,1.823-0.449
			c1.919-1.006,2.66-3.387,1.65-5.302c-2.553-4.865-5.113-10.692-7.305-16.579l20.285-2.396c2.152-0.249,3.703-2.204,3.438-4.354
			c-0.253-2.15-2.252-3.737-4.353-3.438L378.477,140.309z"/>
		<path d="M150.99,211.61c-0.253-2.147-2.254-3.719-4.358-3.434l-21.911,2.58c-2.879-9.75-4.001-18.628-0.839-22.345
			c1.406-1.661,1.2-4.134-0.457-5.537c-1.639-1.39-4.12-1.192-5.522,0.457c-5.394,6.348-4.26,17.583-1.212,28.375l-14.741,1.735
			c-2.152,0.252-3.699,2.2-3.431,4.352c0.225,1.996,1.924,3.467,3.885,3.467c0.159,0,0.315-0.008,0.473-0.032l16.264-1.915
			c3.196,8.872,7.003,16.462,8.478,19.287c0.699,1.335,2.066,2.104,3.47,2.104c0.613,0,1.241-0.148,1.819-0.453
			c1.918-1.006,2.665-3.374,1.657-5.298c-2.549-4.869-5.117-10.704-7.299-16.599l20.286-2.385
			C149.709,215.719,151.246,213.763,150.99,211.61z"/>
		<path d="M257.096,34.22c-0.244-2.15-2.244-3.691-4.36-3.438l-21.912,2.585c-2.89-9.752-4.004-18.637-0.834-22.352
			c1.403-1.657,1.194-4.129-0.461-5.536c-1.643-1.395-4.119-1.184-5.53,0.457c-5.386,6.344-4.252,17.583-1.202,28.377l-14.741,1.737
			c-2.15,0.252-3.699,2.204-3.438,4.358c0.227,1.994,1.92,3.46,3.884,3.46c0.156,0,0.314-0.006,0.471-0.022l16.262-1.917
			c3.198,8.862,7.009,16.456,8.479,19.281c0.698,1.343,2.064,2.104,3.475,2.104c0.613,0,1.234-0.14,1.815-0.447
			c1.92-1.006,2.661-3.378,1.659-5.298c-2.549-4.869-5.113-10.71-7.302-16.599l20.286-2.396
			C255.818,38.326,257.348,36.37,257.096,34.22z"/>
		<path d="M6.463,294.873c-8.547,8.548-8.628,22.37-0.18,30.813c4.06,4.063,9.459,6.283,15.222,6.283
			c5.871,0,11.399-2.3,15.573-6.468c4.133-4.124,6.432-9.605,6.478-15.408c0.046-5.827-2.18-11.31-6.285-15.405
			C29.105,286.51,14.755,286.602,6.463,294.873z M31.729,300.239c2.599,2.601,4.018,6.071,3.985,9.782
			c-0.03,3.743-1.507,7.261-4.178,9.931c-5.312,5.306-14.497,5.397-19.703,0.184c-5.386-5.382-5.298-14.222,0.181-19.712
			c2.695-2.689,6.255-4.168,10.022-4.168C25.721,296.256,29.152,297.679,31.729,300.239z"/>
		<path d="M170.52,173.519c8.552-8.552,8.636-22.374,0.188-30.808c-8.187-8.187-22.543-8.083-30.811,0.188
			c-4.13,4.132-6.428,9.61-6.47,15.413c-0.046,5.823,2.184,11.289,6.29,15.395c4.059,4.06,9.467,6.286,15.23,6.286
			C160.81,179.986,166.346,177.694,170.52,173.519z M141.27,158.358c0.034-3.729,1.511-7.256,4.178-9.917
			c2.691-2.691,6.255-4.174,10.024-4.174c3.675,0,7.113,1.411,9.678,3.985c5.386,5.378,5.294,14.227-0.188,19.708
			c-5.32,5.312-14.489,5.392-19.703,0.179C142.668,165.55,141.246,162.073,141.27,158.358z"/>
		<path d="M275.234,209.764c8.548-8.548,8.632-22.376,0.192-30.805c-8.188-8.179-22.53-8.087-30.817,0.188
			c-8.54,8.548-8.624,22.366-0.176,30.798c4.055,4.062,9.457,6.295,15.224,6.295C265.524,216.247,271.05,213.947,275.234,209.764z
			 M250.16,184.697c2.704-2.691,6.255-4.178,10.034-4.178c3.663,0,7.105,1.42,9.674,3.989c5.382,5.378,5.29,14.218-0.192,19.704
			c-5.31,5.302-14.495,5.395-19.7,0.181C244.593,199.025,244.685,190.185,250.16,184.697z"/>
		<path d="M312.058,128.164c4.124-4.127,6.424-9.605,6.46-15.408c0.048-5.827-2.176-11.289-6.283-15.395
			c-8.16-8.179-22.519-8.089-30.798,0.18c-4.132,4.127-6.432,9.61-6.472,15.409c-0.044,5.827,2.188,11.289,6.287,15.395
			c4.064,4.06,9.47,6.292,15.24,6.292C302.36,134.642,307.886,132.344,312.058,128.164z M282.816,113.016
			c0.032-3.731,1.511-7.257,4.18-9.917c2.688-2.695,6.247-4.167,10.019-4.167c3.675,0,7.102,1.411,9.67,3.987
			c2.597,2.599,4.016,6.075,3.991,9.79c-0.028,3.729-1.503,7.251-4.168,9.913c-5.321,5.316-14.49,5.394-19.704,0.184
			C284.207,120.199,282.795,116.719,282.816,113.016z"/>
	</g>
</g>
<g>
</g>
<g>
</g>
<g>
</g>
<g>
</g>
<g>
</g>
<g>
</g>
<g>
</g>
<g>
</g>
<g>
</g>
<g>
</g>
<g>
</g>
<g>
</g>
<g>
</g>
<g>
</g>
<g>
</g>
</svg>
