<?xml version="1.0" encoding="iso-8859-1"?>
<!-- Generator: Adobe Illustrator 16.0.0, SVG Export Plug-In . SVG Version: 6.00 Build 0)  -->
<!DOCTYPE svg PUBLIC "-//W3C//DTD SVG 1.1//EN" "http://www.w3.org/Graphics/SVG/1.1/DTD/svg11.dtd">
<svg version="1.1" id="Capa_1" xmlns="http://www.w3.org/2000/svg" xmlns:xlink="http://www.w3.org/1999/xlink" x="0px" y="0px"
	 width="323.807px" height="323.807px" viewBox="0 0 323.807 323.807" style="enable-background:new 0 0 323.807 323.807;"
	 xml:space="preserve">
<g>
	<g>
		<path d="M120.207,214.502c4.171,7.11,14.538,1.947,13.049-4.929c3.081,0.683,6.193,1.077,9.305,1.356l-2.944,41.125
			c0,0.165,0.039,0.315,0.044,0.481c-14.271,6.659-23.936,19.443-23.936,34.139h92.828c0-14.695-9.662-27.479-23.934-34.139
			c0.005-0.161,0.042-0.316,0.042-0.481l-2.947-41.167c2.957-0.29,5.914-0.673,8.845-1.325c-1.491,6.887,8.875,12.05,13.049,4.93
			c23.343-39.778,71.64-48.26,101.16-81.17c19.526-21.779,32.083-63.577-3.594-77.936c-14.649-5.896-42.398-3.936-57.307,8.326
			c-0.684-4.401-4.028-7.726-8.663-7.726c5.209,0,9.43-4.223,9.43-9.43c0-5.206-4.221-9.427-9.43-9.427h-5.214H93.817h-5.214
			c-5.207,0-9.427,4.221-9.427,9.427c0,5.207,4.22,9.43,9.427,9.43c-4.635,0-7.979,3.324-8.663,7.726
			c-14.9-12.262-42.657-14.217-57.304-8.326c-35.68,14.364-23.128,56.162-3.594,77.936
			C48.565,166.243,96.864,174.725,120.207,214.502z M242.775,104.476c9.212,6.216,23.571,2.34,33.959-7.549
			c6.617-6.3-3.397-16.278-9.999-9.999c-2.32,2.206-13.365,13.059-17.316,4.924c-2.454-5.054-1.103-11.363,3.024-15.296
			c9.72-9.259,26.776-14.854,39.855-9.587c37.589,15.128,8.136,54.922-12.924,69.589c-15.437,10.748-32.172,19.804-47.577,30.329
			C237.059,151.775,240.928,131.568,242.775,104.476z M31.508,66.968c13.075-5.266,30.137,0.329,39.856,9.587
			c4.127,3.928,5.479,10.237,3.024,15.296c-3.951,8.135-14.996-2.718-17.313-4.924c-6.602-6.284-16.611,3.699-10.001,9.999
			c10.39,9.89,24.749,13.766,33.958,7.549c1.851,27.092,5.716,47.299,10.975,62.41C76.6,156.36,59.864,147.304,44.431,136.557
			C23.374,121.89-6.072,82.096,31.508,66.968z"/>
	</g>
</g>
<g>
</g>
<g>
</g>
<g>
</g>
<g>
</g>
<g>
</g>
<g>
</g>
<g>
</g>
<g>
</g>
<g>
</g>
<g>
</g>
<g>
</g>
<g>
</g>
<g>
</g>
<g>
</g>
<g>
</g>
</svg>
