<?xml version="1.0" encoding="iso-8859-1"?>
<!-- Generator: Adobe Illustrator 16.0.0, SVG Export Plug-In . SVG Version: 6.00 Build 0)  -->
<!DOCTYPE svg PUBLIC "-//W3C//DTD SVG 1.1//EN" "http://www.w3.org/Graphics/SVG/1.1/DTD/svg11.dtd">
<svg version="1.1" id="Capa_1" xmlns="http://www.w3.org/2000/svg" xmlns:xlink="http://www.w3.org/1999/xlink" x="0px" y="0px"
	 width="221.538px" height="221.538px" viewBox="0 0 221.538 221.538" style="enable-background:new 0 0 221.538 221.538;"
	 xml:space="preserve">
<g>
	<g>
		<path d="M158.389,81.099c-3.009,7.71-12.826,27.33-34.88,27.33c-0.099,0-60.939,60.828-81.83,81.711
			c-3.837,3.843-10.524,4.392-14.946,1.248l-23.24-16.539l0.901,8.265l30.468,21.717c4.417,3.148,10.964,2.454,14.623-1.548
			l55.305-60.548l47.758,24.456c20.691,9.274,48.358-7.514,61.801-37.484c9.538-21.277,9.295-43.434,0.983-57.845L158.389,81.099z"
			/>
		<path d="M25.899,188.318c4.422,3.143,11.13,2.589,14.975-1.232l81.698-81.193c25.093,1.642,34.104-27.553,34.104-27.553
			l60.563-9.817l-14.779-9.15c3.506-5.432,6.131-10.905,7.597-15.975c2.973-10.304,1.062-18.962-5.38-24.358
			c-4.557-3.827-12.49-7.063-24.348-0.699c-7.255,3.884-13.883,10.273-18.724,15.716l-17.477-10.827
			c-22.918-3.822-45.829,19.102-45.829,19.102C79.746,75.072,60.101,69.609,60.101,69.609L1.637,159.051
			c-2.969,4.535-1.786,10.76,2.636,13.908L25.899,188.318z M184.968,26.988c8.472-4.546,12.185-1.45,13.401-0.424
			c3.376,2.827,4.132,7.576,2.247,14.11c-1.201,4.153-3.479,8.833-6.515,13.51l-24.006-14.872
			C175.228,33.75,180.407,29.432,184.968,26.988z M101.173,44.811l52.928,29.096c-7.094,26.186-30.281,28.511-30.281,28.511
			C85.08,99.963,61.892,72.82,61.892,72.82C85.212,76.506,101.173,44.811,101.173,44.811z"/>
	</g>
</g>
<g>
</g>
<g>
</g>
<g>
</g>
<g>
</g>
<g>
</g>
<g>
</g>
<g>
</g>
<g>
</g>
<g>
</g>
<g>
</g>
<g>
</g>
<g>
</g>
<g>
</g>
<g>
</g>
<g>
</g>
</svg>
